<svg xmlns="http://www.w3.org/2000/svg" viewBox="0 0 64 64" role="img" aria-label="AS">
  <rect width="64" height="64" rx="32" fill="#221611"/>
  <path d="M18 44 30 14h4l12 30h-6l-2.6-6.8H25.5L22 44h-4Zm9.4-12h9l-4.3-11.3h-.2L27.4 32Z" fill="#fff9ef"/>
  <path d="M43 48c-4.6 0-8.5-2.2-10.5-5.8l4.7-2.4c1.1 2 2.9 3 5.3 3 2.2 0 3.8-.9 3.8-2.5 0-1.5-1.2-2.2-4.9-3.1-4.7-1.2-8.1-3.1-8.1-7.8 0-4.5 3.7-7.5 9.1-7.5 4.2 0 7.3 1.7 9.2 4.7l-4.4 2.7c-.9-1.5-2.4-2.3-4.6-2.3-2.1 0-3.5.8-3.5 2.2 0 1.6 1.6 2.2 5.4 3.2 4.6 1.2 7.7 3 7.7 7.6 0 4.7-3.8 8-9.2 8Z" fill="#ba5330"/>
</svg>
